<mxfile host="app.diagrams.net" agent="Mozilla/5.0 (Windows NT 10.0; Win64; x64) AppleWebKit/537.36 (KHTML, like Gecko) Chrome/130.0.0.0 Safari/537.36" version="24.8.4">
  <diagram name="Page-1" id="N9jeiZ3xWc6V7-_d2dEY">
    <mxGraphModel dx="1050" dy="522" grid="1" gridSize="10" guides="1" tooltips="1" connect="1" arrows="1" fold="1" page="1" pageScale="1" pageWidth="850" pageHeight="1100" math="0" shadow="0">
      <root>
        <mxCell id="0" />
        <mxCell id="1" parent="0" />
        <mxCell id="zmC4sGLLvEsMmZPkFrm1-3" value="aLoginPage:&lt;div&gt;LoginPage&lt;/div&gt;" style="html=1;whiteSpace=wrap;" parent="1" vertex="1">
          <mxGeometry x="195" y="180" width="230" height="90" as="geometry" />
        </mxCell>
        <mxCell id="zmC4sGLLvEsMmZPkFrm1-1" value="" style="shape=umlBoundary;whiteSpace=wrap;html=1;" parent="1" vertex="1">
          <mxGeometry x="375" y="207.5" width="40" height="35" as="geometry" />
        </mxCell>
        <mxCell id="zmC4sGLLvEsMmZPkFrm1-4" value="anAuthentication:&lt;div&gt;Authentication&lt;/div&gt;" style="html=1;whiteSpace=wrap;" parent="1" vertex="1">
          <mxGeometry x="520" y="180" width="230" height="90" as="geometry" />
        </mxCell>
        <mxCell id="zmC4sGLLvEsMmZPkFrm1-2" value="" style="ellipse;shape=umlControl;whiteSpace=wrap;html=1;" parent="1" vertex="1">
          <mxGeometry x="690" y="202.5" width="40" height="40" as="geometry" />
        </mxCell>
        <mxCell id="zmC4sGLLvEsMmZPkFrm1-5" value="Account&lt;div&gt;Owner&lt;/div&gt;" style="shape=umlActor;verticalLabelPosition=bottom;verticalAlign=top;html=1;" parent="1" vertex="1">
          <mxGeometry x="70" y="175" width="50" height="100" as="geometry" />
        </mxCell>
        <mxCell id="zmC4sGLLvEsMmZPkFrm1-8" value="" style="endArrow=none;html=1;rounded=0;entryX=0.5;entryY=1;entryDx=0;entryDy=0;dashed=1;" parent="1" target="zmC4sGLLvEsMmZPkFrm1-3" edge="1">
          <mxGeometry width="50" height="50" relative="1" as="geometry">
            <mxPoint x="310" y="960" as="sourcePoint" />
            <mxPoint x="420" y="360" as="targetPoint" />
          </mxGeometry>
        </mxCell>
        <mxCell id="zmC4sGLLvEsMmZPkFrm1-10" value="" style="endArrow=none;html=1;rounded=0;entryX=0.5;entryY=1;entryDx=0;entryDy=0;dashed=1;" parent="1" edge="1">
          <mxGeometry width="50" height="50" relative="1" as="geometry">
            <mxPoint x="95" y="1000" as="sourcePoint" />
            <mxPoint x="95" y="310" as="targetPoint" />
          </mxGeometry>
        </mxCell>
        <mxCell id="zmC4sGLLvEsMmZPkFrm1-11" value="" style="endArrow=none;html=1;rounded=0;entryX=0.5;entryY=1;entryDx=0;entryDy=0;dashed=1;" parent="1" edge="1">
          <mxGeometry width="50" height="50" relative="1" as="geometry">
            <mxPoint x="640" y="960" as="sourcePoint" />
            <mxPoint x="640" y="270" as="targetPoint" />
          </mxGeometry>
        </mxCell>
        <mxCell id="zmC4sGLLvEsMmZPkFrm1-12" value="" style="endArrow=none;html=1;rounded=0;strokeWidth=6;" parent="1" edge="1">
          <mxGeometry width="50" height="50" relative="1" as="geometry">
            <mxPoint x="95" y="530" as="sourcePoint" />
            <mxPoint x="95" y="311" as="targetPoint" />
          </mxGeometry>
        </mxCell>
        <mxCell id="zmC4sGLLvEsMmZPkFrm1-13" value="" style="endArrow=none;html=1;rounded=0;strokeWidth=6;" parent="1" edge="1">
          <mxGeometry width="50" height="50" relative="1" as="geometry">
            <mxPoint x="310" y="530" as="sourcePoint" />
            <mxPoint x="309.5" y="310" as="targetPoint" />
          </mxGeometry>
        </mxCell>
        <mxCell id="zmC4sGLLvEsMmZPkFrm1-14" value="" style="endArrow=block;html=1;rounded=0;endFill=1;" parent="1" edge="1">
          <mxGeometry width="50" height="50" relative="1" as="geometry">
            <mxPoint x="94" y="310" as="sourcePoint" />
            <mxPoint x="310" y="310" as="targetPoint" />
          </mxGeometry>
        </mxCell>
        <mxCell id="zmC4sGLLvEsMmZPkFrm1-15" value="selectLogin()" style="text;html=1;align=center;verticalAlign=middle;resizable=0;points=[];autosize=1;strokeColor=none;fillColor=none;" parent="1" vertex="1">
          <mxGeometry x="130" y="285" width="90" height="30" as="geometry" />
        </mxCell>
        <mxCell id="zmC4sGLLvEsMmZPkFrm1-16" value="" style="endArrow=block;html=1;rounded=0;endFill=1;" parent="1" edge="1">
          <mxGeometry width="50" height="50" relative="1" as="geometry">
            <mxPoint x="93" y="334" as="sourcePoint" />
            <mxPoint x="309" y="334" as="targetPoint" />
          </mxGeometry>
        </mxCell>
        <mxCell id="zmC4sGLLvEsMmZPkFrm1-17" value="enter(username,password)" style="text;html=1;align=center;verticalAlign=middle;resizable=0;points=[];autosize=1;strokeColor=none;fillColor=none;" parent="1" vertex="1">
          <mxGeometry x="96" y="309" width="170" height="30" as="geometry" />
        </mxCell>
        <mxCell id="zmC4sGLLvEsMmZPkFrm1-18" value="" style="endArrow=none;html=1;rounded=0;strokeWidth=6;" parent="1" edge="1">
          <mxGeometry width="50" height="50" relative="1" as="geometry">
            <mxPoint x="640" y="400" as="sourcePoint" />
            <mxPoint x="640" y="350" as="targetPoint" />
          </mxGeometry>
        </mxCell>
        <mxCell id="zmC4sGLLvEsMmZPkFrm1-19" value="" style="endArrow=classic;html=1;rounded=0;" parent="1" edge="1">
          <mxGeometry width="50" height="50" relative="1" as="geometry">
            <mxPoint x="310" y="350" as="sourcePoint" />
            <mxPoint x="640" y="350" as="targetPoint" />
          </mxGeometry>
        </mxCell>
        <mxCell id="zmC4sGLLvEsMmZPkFrm1-20" value="createValidateObject()" style="text;html=1;align=center;verticalAlign=middle;resizable=0;points=[];autosize=1;strokeColor=none;fillColor=none;" parent="1" vertex="1">
          <mxGeometry x="390" y="326" width="140" height="30" as="geometry" />
        </mxCell>
        <mxCell id="zmC4sGLLvEsMmZPkFrm1-21" value="validateInformation()" style="text;html=1;align=center;verticalAlign=middle;resizable=0;points=[];autosize=1;strokeColor=none;fillColor=none;" parent="1" vertex="1">
          <mxGeometry x="708" y="402" width="130" height="30" as="geometry" />
        </mxCell>
        <mxCell id="zmC4sGLLvEsMmZPkFrm1-22" value="" style="endArrow=classic;html=1;rounded=0;edgeStyle=orthogonalEdgeStyle;" parent="1" edge="1">
          <mxGeometry width="50" height="50" relative="1" as="geometry">
            <mxPoint x="640" y="400" as="sourcePoint" />
            <mxPoint x="640" y="440" as="targetPoint" />
            <Array as="points">
              <mxPoint x="710" y="400" />
              <mxPoint x="710" y="440" />
            </Array>
          </mxGeometry>
        </mxCell>
        <mxCell id="zmC4sGLLvEsMmZPkFrm1-23" value="" style="endArrow=none;html=1;rounded=0;strokeWidth=6;" parent="1" edge="1">
          <mxGeometry width="50" height="50" relative="1" as="geometry">
            <mxPoint x="642" y="490" as="sourcePoint" />
            <mxPoint x="642" y="440" as="targetPoint" />
          </mxGeometry>
        </mxCell>
        <mxCell id="zmC4sGLLvEsMmZPkFrm1-24" value="" style="endArrow=classic;html=1;rounded=0;" parent="1" edge="1">
          <mxGeometry width="50" height="50" relative="1" as="geometry">
            <mxPoint x="640" y="489" as="sourcePoint" />
            <mxPoint x="310" y="489" as="targetPoint" />
          </mxGeometry>
        </mxCell>
        <mxCell id="zmC4sGLLvEsMmZPkFrm1-25" value="sendValidateResult()" style="text;html=1;align=center;verticalAlign=middle;resizable=0;points=[];autosize=1;strokeColor=none;fillColor=none;" parent="1" vertex="1">
          <mxGeometry x="410" y="486" width="130" height="30" as="geometry" />
        </mxCell>
        <mxCell id="zmC4sGLLvEsMmZPkFrm1-27" value="" style="endArrow=none;html=1;rounded=0;startArrow=block;startFill=1;endFill=0;" parent="1" edge="1">
          <mxGeometry width="50" height="50" relative="1" as="geometry">
            <mxPoint x="96" y="530" as="sourcePoint" />
            <mxPoint x="312" y="530" as="targetPoint" />
          </mxGeometry>
        </mxCell>
        <mxCell id="zmC4sGLLvEsMmZPkFrm1-28" value="displayValidateResult()" style="text;html=1;align=center;verticalAlign=middle;resizable=0;points=[];autosize=1;strokeColor=none;fillColor=none;" parent="1" vertex="1">
          <mxGeometry x="130" y="527" width="150" height="30" as="geometry" />
        </mxCell>
      </root>
    </mxGraphModel>
  </diagram>
</mxfile>
